HIERARCHY
ROOT Hips
{
 OFFSET 0.000000 0.000000 0.000000
 CHANNELS 6 Xposition Yposition Zposition Yrotation Xrotation Zrotation
 JOINT Chest
 {
  OFFSET 0.000000 9.588913 -0.003946
  CHANNELS 3 Yrotation Xrotation Zrotation
  JOINT Chest2
  {
   OFFSET 0.000000 9.541882 0.008053
   CHANNELS 3 Yrotation Xrotation Zrotation
   JOINT Chest3
   {
    OFFSET 0.000000 9.501360 0.000000
    CHANNELS 3 Yrotation Xrotation Zrotation
    JOINT Chest4
    {
     OFFSET 0.000000 9.491660 0.000000
     CHANNELS 3 Yrotation Xrotation Zrotation
     JOINT Neck
     {
      OFFSET 0.000000 14.331917 0.000000
      CHANNELS 3 Yrotation Xrotation Zrotation
      JOINT Head
      {
       OFFSET 0.000000 8.884799 0.017034
       CHANNELS 3 Yrotation Xrotation Zrotation
       End Site
       {
        OFFSET 0.000000 16.896195 0.008993
       }
      }
     }
     JOINT RightCollar
     {
      OFFSET -2.923010 9.499495 0.000000
      CHANNELS 3 Yrotation Xrotation Zrotation
      JOINT RightShoulder
      {
       OFFSET -13.795216 0.000000 0.000000
       CHANNELS 3 Yrotation Xrotation Zrotation
       JOINT RightElbow
       {
        OFFSET -30.272209 0.000000 0.000000
        CHANNELS 3 Yrotation Xrotation Zrotation
        JOINT RightWrist
        {
         OFFSET -24.478199 0.000000 0.000000
         CHANNELS 3 Yrotation Xrotation Zrotation
         End Site
         {
          OFFSET -18.090752 0.000000 0.000000
         }
        }
       }
      }
     }
     JOINT LeftCollar
     {
      OFFSET 2.923010 9.499495 0.000000
      CHANNELS 3 Yrotation Xrotation Zrotation
      JOINT LeftShoulder
      {
       OFFSET 13.795216 0.000000 0.000000
       CHANNELS 3 Yrotation Xrotation Zrotation
       JOINT LeftElbow
       {
        OFFSET 30.272209 0.000000 0.000000
        CHANNELS 3 Yrotation Xrotation Zrotation
        JOINT LeftWrist
        {
         OFFSET 24.478199 0.000000 0.000000
         CHANNELS 3 Yrotation Xrotation Zrotation
         End Site
         {
          OFFSET 18.090752 0.000000 0.000000
         }
        }
       }
      }
     }
    }
   }
  }
 }
 JOINT RightHip
 {
  OFFSET -7.826875 0.019532 0.001973
  CHANNELS 3 Yrotation Xrotation Zrotation
  JOINT RightKnee
  {
   OFFSET 0.000000 -40.546152 -0.001885
   CHANNELS 3 Yrotation Xrotation Zrotation
   JOINT RightAnkle
   {
    OFFSET 0.000000 -39.417092 -0.003189
    CHANNELS 3 Yrotation Xrotation Zrotation
    JOINT RightToe
    {
     OFFSET 0.000000 -7.579396 17.243563
     CHANNELS 3 Yrotation Xrotation Zrotation
     End Site
     {
      OFFSET 0.000000 -1.500329 6.694466
     }
    }
   }
  }
 }
 JOINT LeftHip
 {
  OFFSET 7.826875 0.019532 0.001973
  CHANNELS 3 Yrotation Xrotation Zrotation
  JOINT LeftKnee
  {
   OFFSET 0.000000 -40.546152 -0.001885
   CHANNELS 3 Yrotation Xrotation Zrotation
   JOINT LeftAnkle
   {
    OFFSET 0.000000 -39.417092 -0.003189
    CHANNELS 3 Yrotation Xrotation Zrotation
    JOINT LeftToe
    {
     OFFSET 0.000000 -7.579396 17.243563
     CHANNELS 3 Yrotation Xrotation Zrotation
     End Site
     {
      OFFSET 0.000000 -1.500329 6.694466
     }
    }
   }
  }
 }
}
MOTION
Frames: 10
Frame Time: 0.008333
0.000000 87.345680 0.000000 0.000000 -5.767889 0.000000 0.000000 11.653876 0.000000 0.000000 -5.885988 0.000000 0.000000 -0.000000 0.000000 0.000000 -0.000000 0.000000 0.000000 12.528808 0.000000 0.000000 0.711711 0.000000 0.000000 -0.000000 0.000000 0.000000 -0.000000 0.000000 2.309063 -0.000000 0.000000 -2.309063 -0.000000 -0.000000 0.000000 -0.000000 0.000000 0.000000 0.000000 0.000000 -2.309063 0.000000 0.000000 2.309063 -0.000000 0.000000 0.000000 8.520374 0.000000 0.000000 1.905768 0.000000 -0.000000 -4.658254 0.000000 0.000000 -0.000000 0.000000 0.000000 8.520374 0.000000 0.000000 1.905768 0.000000 -0.000000 -4.658254 0.000000 0.000000 -0.000000 0.000000
-0.517779 88.853463 17.210031 -48.573872 -2.442562 -0.724592 2.825065 2.467826 1.141623 1.597474 1.420894 0.608766 1.999348 1.773416 0.767189 1.597474 1.420894 0.608766 -2.268122 22.677743 -1.574881 -3.672435 6.306992 -2.238762 -5.952397 2.845728 -1.111748 -13.804386 -3.022187 88.985219 33.122856 -24.385712 22.036113 10.797357 -7.180534 -10.219299 -1.743419 2.473772 -1.646129 9.956301 0.600114 -87.653592 -15.251048 -14.812100 -11.728388 -17.793163 -13.029885 6.567961 -8.016904 8.348618 -4.617959 -4.635511 -3.483482 0.834203 -2.969784 -1.240704 2.971877 0.010790 0.070800 0.012274 17.969031 3.507833 11.364372 -2.104968 3.409939 1.209783 -2.055779 -2.644884 -7.148037 -0.005181 -0.043606 -0.005945
-0.527319 88.852565 17.209397 -48.593272 -2.444040 -0.716419 2.825661 2.476209 1.144023 1.597647 1.425492 0.608444 1.999572 1.779164 0.766809 1.597647 1.425492 0.608444 -2.269365 22.677813 -1.576057 -3.674364 6.307103 -2.240554 -5.956096 2.812386 -1.103025 -13.796230 -3.024247 88.967620 33.181716 -24.426677 22.054710 10.822823 -7.166983 -10.231244 -1.742409 2.477877 -1.648835 9.942548 0.596370 -87.648235 -15.229227 -14.814141 -11.721167 -17.860235 -13.096596 6.607066 -8.013632 8.345536 -4.622871 -4.618728 -3.475789 0.835985 -2.978658 -1.250601 2.961869 0.009956 0.072399 0.013640 17.957420 3.507778 11.356841 -2.098281 3.437855 1.219175 -2.048139 -2.662217 -7.157308 -0.004902 -0.046819 -0.005984
-0.538744 88.851554 17.207938 -48.605983 -2.444982 -0.710252 2.823814 2.483733 1.147523 1.596371 1.429590 0.608564 1.997985 1.784288 0.766972 1.596371 1.429590 0.608564 -2.270412 22.677279 -1.577386 -3.675897 6.306091 -2.242662 -5.966016 2.780420 -1.099083 -13.765954 -3.023520 88.963863 33.269033 -24.478562 22.056870 10.818920 -7.151352 -10.245646 -1.740778 2.484733 -1.649296 9.939376 0.593011 -87.644996 -15.207049 -14.798586 -11.714554 -17.930421 -13.169731 6.640761 -8.012360 8.341737 -4.624980 -4.610216 -3.464147 0.841012 -2.987574 -1.262759 2.948849 0.009145 0.073935 0.014531 17.940960 3.504527 11.352295 -2.093875 3.468772 1.228416 -2.043116 -2.682591 -7.166930 -0.004753 -0.049084 -0.006560
-0.551461 88.850476 17.205339 -48.616453 -2.443597 -0.706467 2.820407 2.490073 1.151672 1.594042 1.432794 0.609048 1.995082 1.788295 0.767583 1.594042 1.432794 0.609048 -2.270214 22.676458 -1.579299 -3.675027 6.304533 -2.246148 -5.972296 2.753919 -1.097124 -13.727911 -3.019254 88.974529 33.398830 -24.531531 22.044296 10.772787 -7.123062 -10.260102 -1.737151 2.491330 -1.647684 9.928617 0.594037 -87.641794 -15.186197 -14.785861 -11.703749 -18.000257 -13.241083 6.665401 -8.011402 8.335304 -4.626314 -4.600367 -3.449667 0.848815 -2.991155 -1.276860 2.935087 0.009220 0.075326 0.014995 17.924594 3.494518 11.349572 -2.087771 3.505865 1.237851 -2.039872 -2.706731 -7.176587 -0.004499 -0.050581 -0.007242
-0.564532 88.849380 17.201808 -48.626425 -2.438616 -0.702121 2.817325 2.496626 1.156035 1.591952 1.435901 0.609782 1.992478 1.792179 0.768505 1.591952 1.435901 0.609782 -2.270429 22.673892 -1.582441 -3.674566 6.299717 -2.251705 -5.973240 2.726843 -1.094886 -13.697868 -3.006717 88.991477 33.573787 -24.581443 22.027622 10.695276 -7.079674 -10.273260 -1.735766 2.491714 -1.647554 9.904833 0.599385 -87.636255 -15.166688 -14.776573 -11.688193 -18.068797 -13.298879 6.689723 -8.008987 8.324428 -4.628795 -4.587037 -3.433273 0.858074 -2.994586 -1.292368 2.921243 0.009561 0.077131 0.014988 17.909348 3.478868 11.346004 -2.081610 3.545965 1.245239 -2.035902 -2.731222 -7.184341 -0.004182 -0.052439 -0.008304
-0.577461 88.848337 17.197822 -48.636222 -2.431456 -0.694832 2.815987 2.504882 1.160022 1.591079 1.439972 0.610516 1.991397 1.797265 0.769437 1.591079 1.439972 0.610516 -2.272250 22.668981 -1.586403 -3.676767 6.290534 -2.258270 -5.972713 2.695835 -1.091527 -13.688729 -2.983411 89.009960 33.791115 -24.625436 22.017836 10.606879 -7.025581 -10.286110 -1.740691 2.481613 -1.649305 9.873132 0.608311 -87.628739 -15.148309 -14.760326 -11.669089 -18.137142 -13.335847 6.722679 -8.005192 8.309283 -4.632310 -4.568624 -3.413953 0.865450 -3.007055 -1.309899 2.908470 0.009061 0.080026 0.014191 17.893367 3.461541 11.339659 -2.075748 3.586148 1.250297 -2.029974 -2.753707 -7.189881 -0.003755 -0.055331 -0.009750
-0.590403 88.847423 17.193309 -48.647417 -2.423763 -0.687055 2.816259 2.513739 1.163900 1.591389 1.444800 0.611497 1.991797 1.803296 0.770687 1.591389 1.444800 0.611497 -2.275074 22.663315 -1.590522 -3.680731 6.279948 -2.264837 -5.971656 2.667797 -1.088149 -13.705896 -2.953373 89.032584 34.041025 -24.661097 22.023042 10.528492 -6.965692 -10.297337 -1.748672 2.464198 -1.650926 9.831398 0.618950 -87.617741 -15.130699 -14.734939 -11.646171 -18.203602 -13.357574 6.768992 -7.996792 8.289884 -4.633543 -4.544624 -3.388089 0.870116 -3.032695 -1.330599 2.897400 0.007493 0.083460 0.012088 17.877242 3.444293 11.331808 -2.067487 3.625440 1.257127 -2.023522 -2.774750 -7.196109 -0.003191 -0.058571 -0.011106
-0.604829 88.846717 17.186156 -48.658633 -2.414287 -0.695554 2.816629 2.520817 1.183091 1.592237 1.449488 0.613233 1.992873 1.809147 0.772881 1.592237 1.449488 0.613233 -2.279069 22.658386 -1.595273 -3.686642 6.270720 -2.272247 -5.970192 2.647770 -1.087967 -13.742913 -2.922211 89.061765 34.307673 -24.694515 22.046983 10.488248 -6.902882 -10.312924 -1.756563 2.446019 -1.652249 9.781951 0.625614 -87.603847 -15.110245 -14.696150 -11.617916 -18.267671 -13.375395 6.826060 -7.981774 8.270588 -4.616369 -4.525327 -3.354698 0.873572 -3.051523 -1.379244 2.888124 0.004207 0.107590 0.008811 17.860175 3.419330 11.339255 -2.056920 3.659281 1.266814 -2.018222 -2.772021 -7.204498 -0.005616 -0.078849 -0.013453
-0.617329 88.846204 17.180169 -48.669677 -2.402516 -0.691061 2.817018 2.528135 1.189729 1.592720 1.453915 0.615728 1.993494 1.814668 0.776021 1.592720 1.453915 0.615728 -2.284293 22.653624 -1.601076 -3.694492 6.261784 -2.281233 -5.970912 2.631529 -1.092989 -13.787863 -2.889818 89.097101 34.579805 -24.736339 22.087617 10.504978 -6.841547 -10.342422 -1.764290 2.429099 -1.655026 9.726894 0.626025 -87.588972 -15.085967 -14.644956 -11.580122 -18.326419 -13.391263 6.882434 -7.966564 8.238112 -4.613493 -4.515188 -3.310280 0.874878 -3.055606 -1.407909 2.881098 0.003003 0.110200 0.007234 17.841624 3.398106 11.331624 -2.046000 3.695461 1.278645 -2.013750 -2.789793 -7.213977 -0.005645 -0.082833 -0.014388
